<svg xmlns="http://www.w3.org/2000/svg" width="600" height="400" viewBox="0 0 600 400"><rect width="100%" height="100%" fill="#DDDDDD"/><path fill="#999999" d="M139.65 153.52v74.47h-13.9v-74.47h13.9ZM167 227.99h-12.72v-52.84h7.77q2.48 0 3.25 2.32l.82 3.91q1.39-1.54 2.91-2.83 1.52-1.29 3.25-2.21 1.72-.93 3.7-1.47 1.99-.54 4.36-.54 4.99 0 8.21 2.7 3.22 2.7 4.82 7.18 1.23-2.62 3.09-4.5 1.85-1.88 4.06-3.07 2.22-1.18 4.72-1.75 2.49-.56 5.02-.56 4.38 0 7.77 1.34 3.4 1.33 5.72 3.91 2.32 2.57 3.53 6.28 1.21 3.71 1.21 8.5v33.63h-12.72v-33.63q0-5.05-2.22-7.6-2.21-2.55-6.48-2.55-1.96 0-3.64.67-1.67.67-2.93 1.94-1.26 1.26-1.98 3.16-.72 1.91-.72 4.38v33.63h-12.78v-33.63q0-5.3-2.13-7.72-2.14-2.43-6.26-2.43-2.78 0-5.18 1.37-2.39 1.36-4.45 3.73v38.68Zm101.45-13.65v-8.91q-5.51.26-9.27.96-3.76.69-6.02 1.77-2.27 1.08-3.25 2.53-.98 1.44-.98 3.14 0 3.34 1.99 4.79 1.98 1.44 5.17 1.44 3.92 0 6.78-1.42 2.85-1.41 5.58-4.3Zm-26.88-27.76-2.27-4.06q9.12-8.35 21.94-8.35 4.64 0 8.29 1.52 3.66 1.52 6.18 4.22 2.53 2.71 3.84 6.47t1.31 8.24v33.37h-5.76q-1.81 0-2.78-.54-.98-.54-1.55-2.19l-1.13-3.81q-2.01 1.8-3.92 3.17-1.9 1.36-3.96 2.29-2.06.93-4.41 1.41-2.34.49-5.17.49-3.35 0-6.18-.9-2.83-.9-4.89-2.7-2.06-1.8-3.2-4.48-1.13-2.68-1.13-6.23 0-2.01.67-3.99.67-1.99 2.19-3.79t3.94-3.4q2.42-1.6 5.95-2.78 3.52-1.18 8.21-1.93 4.69-.75 10.71-.9v-3.09q0-5.31-2.26-7.86-2.27-2.55-6.54-2.55-3.09 0-5.13.73-2.03.72-3.58 1.62-1.54.9-2.8 1.62-1.27.72-2.81.72-1.34 0-2.27-.69-.92-.7-1.49-1.63Zm70.56 13.7q2.36 0 4.12-.64 1.75-.64 2.9-1.78 1.16-1.13 1.76-2.73.59-1.59.59-3.5 0-3.91-2.35-6.2-2.34-2.3-7.02-2.3-4.69 0-7.03 2.3-2.35 2.29-2.35 6.2 0 1.85.59 3.45.6 1.6 1.76 2.76 1.15 1.16 2.93 1.8 1.78.64 4.1.64Zm14.36 30.08q0-1.55-.92-2.52-.93-.98-2.53-1.52-1.59-.54-3.73-.8-2.14-.26-4.53-.39-2.4-.13-4.95-.23-2.55-.1-4.97-.41-2.11 1.18-3.42 2.78-1.31 1.6-1.31 3.71 0 1.39.69 2.6.7 1.21 2.22 2.08 1.51.88 3.94 1.37 2.42.49 5.92.49 3.55 0 6.13-.54 2.57-.54 4.24-1.5 1.68-.95 2.45-2.26.77-1.32.77-2.86Zm-2.52-53.41h15.19v4.74q0 2.27-2.73 2.78l-4.73.88q1.08 2.73 1.08 5.97 0 3.92-1.57 7.08-1.57 3.17-4.36 5.38-2.78 2.22-6.56 3.43-3.79 1.21-8.16 1.21-1.55 0-2.99-.15-1.44-.16-2.83-.42-2.48 1.5-2.48 3.35 0 1.6 1.47 2.34 1.47.75 3.89 1.06 2.42.31 5.51.39 3.09.07 6.33.33 3.25.26 6.34.9 3.09.65 5.51 2.04 2.42 1.39 3.89 3.78 1.47 2.4 1.47 6.16 0 3.5-1.73 6.79-1.72 3.3-5 5.88-3.27 2.57-8.03 4.14-4.76 1.57-10.84 1.57-5.97 0-10.4-1.16-4.43-1.16-7.37-3.09-2.93-1.93-4.37-4.45-1.45-2.53-1.45-5.25 0-3.71 2.24-6.21t6.16-3.99q-2.11-1.08-3.35-2.89-1.24-1.8-1.24-4.73 0-1.19.44-2.45.44-1.26 1.29-2.5.85-1.23 2.14-2.34 1.28-1.11 3.04-1.98-4.02-2.17-6.31-5.77-2.3-3.61-2.3-8.45 0-3.91 1.58-7.08 1.57-3.17 4.37-5.41 2.81-2.24 6.65-3.42 3.83-1.19 8.37-1.19 3.39 0 6.38.7 2.99.69 5.46 2.03Zm33.27 18.54h24q0-2.47-.7-4.66-.69-2.19-2.08-3.83-1.39-1.65-3.53-2.6-2.14-.96-4.97-.96-5.51 0-8.68 3.14-3.17 3.15-4.04 8.91Zm32.44 7.68h-32.7q.31 4.07 1.44 7.03 1.14 2.96 2.99 4.89 1.85 1.93 4.4 2.88 2.55.96 5.64.96t5.33-.73q2.24-.72 3.92-1.59 1.67-.88 2.93-1.6 1.26-.72 2.45-.72 1.6 0 2.37 1.19l3.65 4.63q-2.11 2.47-4.73 4.15-2.63 1.67-5.49 2.67-2.86 1.01-5.82 1.42-2.96.41-5.74.41-5.51 0-10.25-1.83-4.74-1.82-8.24-5.4t-5.51-8.86q-2.01-5.28-2.01-12.23 0-5.41 1.75-10.17 1.75-4.77 5.03-8.3 3.27-3.52 7.98-5.58 4.71-2.06 10.63-2.06 5 0 9.22 1.59 4.22 1.6 7.26 4.66 3.04 3.07 4.77 7.52 1.72 4.46 1.72 10.17 0 2.89-.62 3.89-.61 1.01-2.37 1.01Zm71.18 15.29h13.39v9.53h-41.2v-9.53h15.09v-43.41q0-2.58.15-5.31l-10.71 8.96q-.93.73-1.83.91-.9.18-1.7.02-.8-.15-1.41-.54-.62-.39-.93-.85l-4.02-5.51 22.71-19.31h10.46v65.04Z"/></svg>